<svg width="104" height="104" viewBox="0 0 104 104" fill="none" xmlns="http://www.w3.org/2000/svg">
<rect width="104" height="104" fill="#DBD4CC"/>
<path d="M20 77V75.2542L21.3923 75.1145C23.0166 74.9283 24.2464 74.6955 25.0818 74.4162C25.9635 74.0903 26.5669 73.4385 26.8917 72.4609C27.2166 71.4367 27.379 69.784 27.379 67.5028V36.4972C27.379 34.1695 27.2166 32.5168 26.8917 31.5391C26.5669 30.5615 25.9635 29.933 25.0818 29.6536C24.2464 29.3277 23.0166 29.0717 21.3923 28.8855L20 28.7458V27L30.3028 27.2095H34.2011L50.7691 67.5028L69.0773 27.2095H73.2541L83 27V28.7458L81.6077 28.8855C80.0298 29.0717 78.8 29.3277 77.9182 29.6536C77.0365 29.933 76.4331 30.5615 76.1083 31.5391C75.7834 32.5168 75.621 34.1695 75.621 36.4972V67.5028C75.621 69.784 75.7834 71.4367 76.1083 72.4609C76.4331 73.4851 77.0365 74.1369 77.9182 74.4162C78.8 74.6955 80.0298 74.9283 81.6077 75.1145L83 75.2542V77L72.6972 76.7905L62.3249 77V75.2542L63.7171 75.1145C65.3414 74.9283 66.5713 74.6955 67.4066 74.4162C68.2884 74.1369 68.8917 73.4851 69.2166 72.4609C69.5414 71.4367 69.7039 69.784 69.7039 67.5028V31.6089L49.0983 76.7905H47.7757L29.8155 32.3073V69.4581C29.8155 70.9479 30.0011 72.0652 30.3724 72.8101C30.7436 73.5549 31.347 74.0903 32.1823 74.4162C33.0641 74.6955 34.2707 74.9283 35.8022 75.1145L37.1945 75.2542V77L28.3536 76.7905L20 77Z" fill="#221200"/>
</svg>
